<?xml version="1.0" encoding="UTF-8"?>
<svg xmlns="http://www.w3.org/2000/svg" xmlns:xlink="http://www.w3.org/1999/xlink" width="175px" height="175px" viewBox="0 0 175 175" version="1.1">
<g id="surface1">
<path style=" stroke:none;fill-rule:nonzero;fill:rgb(33.72549%,23.921569%,48.627451%);fill-opacity:1;" d="M 0 152.433594 C 0 164.898438 10.101562 175 22.566406 175 L 152.433594 175 C 164.898438 175 175 164.898438 175 152.433594 L 175 22.566406 C 175 10.101562 164.898438 0 152.433594 0 L 22.566406 0 C 10.101562 0 0 10.101562 0 22.566406 Z M 0 152.433594 "/>
<path style=" stroke:none;fill-rule:nonzero;fill:rgb(100%,100%,100%);fill-opacity:1;" d="M 72.570312 77.410156 L 72.570312 52.625 L 94.382812 52.625 C 96.460938 52.625 98.464844 52.800781 100.394531 53.144531 C 102.324219 53.492188 104.03125 54.109375 105.511719 55 C 106.996094 55.890625 108.183594 57.128906 109.074219 58.710938 C 109.964844 60.292969 110.410156 62.320312 110.410156 64.792969 C 110.410156 69.246094 109.074219 72.460938 106.402344 74.441406 C 103.734375 76.417969 100.320312 77.410156 96.164062 77.410156 Z M 49.269531 34.523438 L 49.269531 140.480469 L 100.617188 140.480469 C 105.363281 140.480469 109.992188 139.886719 114.492188 138.699219 C 118.992188 137.511719 123 135.679688 126.511719 133.207031 C 130.023438 130.734375 132.820312 127.542969 134.894531 123.636719 C 136.972656 119.726562 138.011719 115.101562 138.011719 109.761719 C 138.011719 103.132812 136.40625 97.46875 133.191406 92.769531 C 129.972656 88.070312 125.101562 84.78125 118.570312 82.898438 C 123.320312 80.625 126.90625 77.707031 129.332031 74.144531 C 131.753906 70.582031 132.96875 66.132812 132.96875 60.789062 C 132.96875 55.839844 132.152344 51.6875 130.519531 48.324219 C 128.886719 44.960938 126.585938 42.261719 123.617188 40.234375 C 120.648438 38.207031 117.089844 36.746094 112.933594 35.855469 C 108.777344 34.964844 104.175781 34.523438 99.132812 34.523438 Z M 72.570312 122.375 L 72.570312 93.289062 L 97.945312 93.289062 C 102.992188 93.289062 107.046875 94.449219 110.113281 96.773438 C 113.179688 99.101562 114.714844 102.984375 114.714844 108.425781 C 114.714844 111.195312 114.246094 113.46875 113.304688 115.25 C 112.363281 117.03125 111.101562 118.441406 109.519531 119.480469 C 107.9375 120.519531 106.105469 121.261719 104.03125 121.707031 C 101.953125 122.152344 99.773438 122.375 97.5 122.375 Z M 72.570312 122.375 "/>
</g>
</svg>
